<svg id="Capa_1" enable-background="new 0 0 512 512" height="512" viewBox="0 0 512 512" width="512" xmlns="http://www.w3.org/2000/svg"><g><g><g><g><g><path d="m80.441 8.474c-16.569 0-30 13.431-30 30v435.073c0 16.567 13.428 29.997 29.995 30l194.988.032c16.57.003 30.005-13.43 30.005-30v-435.799c0-16.185-13.121-29.306-29.306-29.306z" fill="#9bb6f1"/></g><g><path d="m297.274 482.095-215.982-.036c-4.971-.001-9.001-4.031-9.001-9.003v-456.066c0-2.265.259-4.468.735-6.59-12.982 3.301-22.585 15.065-22.585 29.075v435.073c0 16.567 13.428 29.997 29.995 30l194.988.032c14.305.002 26.265-10.011 29.27-23.41-2.373.603-4.859.926-7.42.925z" fill="#6990eb"/></g><g><circle cx="177.928" cy="53.628" fill="#f7e0ba" r="15"/></g><g><path d="m162.928 443.601h30v29.952h-30z" fill="#d15573"/></g><g><path d="m215.428 451.096h15v15h-15z" fill="#fff"/></g><g><path d="m125.428 451.096h15v15h-15z" fill="#fff"/></g><g><circle cx="305.429" cy="256" fill="#e08ea2" r="112.957"/></g><g><path d="m321.803 352.584c-62.385 0-112.958-50.573-112.958-112.957 0-27.022 9.493-51.824 25.321-71.264-25.44 20.712-41.694 52.274-41.694 87.637 0 62.385 50.573 112.957 112.958 112.957 35.363 0 66.925-16.254 87.637-41.694-19.44 15.828-44.242 25.321-71.264 25.321z" fill="#d15573"/></g><g><circle cx="305.429" cy="256" fill="#6de89a" r="67.458"/></g><g><path d="m320.297 308.591c-37.256 0-67.458-30.202-67.458-67.458 0-14.834 4.8-28.54 12.915-39.676-16.833 12.266-27.782 32.121-27.782 54.544 0 37.256 30.202 67.458 67.458 67.458 22.422 0 42.278-10.949 54.543-27.782-11.136 8.114-24.843 12.914-39.676 12.914z" fill="#2ce079"/></g><g><circle cx="305.429" cy="256" fill="#fbf2e2" r="22.458"/></g><g><path d="m321.02 262.868c-12.403 0-22.458-10.055-22.458-22.458 0-2.093.292-4.117.828-6.04-9.469 2.639-16.418 11.32-16.418 21.63 0 12.403 10.055 22.458 22.458 22.458 10.31 0 18.991-6.95 21.63-16.418-1.923.535-3.947.828-6.04.828z" fill="#f7e0ba"/></g><g><path d="m72.392 91.096h15v15h-15z" fill="#fff"/></g><g><path d="m72.392 121.042h15v15h-15z" fill="#fff"/></g></g></g></g><g><path d="m200.331 52.746c0-12.428-10.111-22.539-22.539-22.539s-22.539 10.111-22.539 22.539 10.111 22.539 22.539 22.539 22.539-10.111 22.539-22.539zm-30.053 0c0-4.143 3.37-7.513 7.513-7.513s7.513 3.37 7.513 7.513-3.37 7.513-7.513 7.513-7.513-3.37-7.513-7.513z"/><path d="m155.252 481.921h45.079v-45.031h-45.079zm15.026-30.004h15.026v14.978h-15.026z"/><path d="m245.409 451.096h15.026v15h-15.026z"/><path d="m95.147 451.096h15.026v15h-15.026z"/><path d="m347.083 352.079 5.946 13.8c4.937-2.127 9.783-4.616 14.403-7.398l-7.752-12.873c-4.041 2.434-8.279 4.611-12.597 6.471z"/><path d="m313.029 135.546v-97.98c0-20.714-16.851-37.566-37.565-37.566h-150.802v15.026h150.801c12.428 0 22.539 10.111 22.539 22.539v97.98c-62.774 3.892-112.655 56.189-112.655 119.926s49.881 116.034 112.655 119.926v99.036c0 6.021-2.345 11.682-6.603 15.939-4.256 4.256-9.917 6.6-15.936 6.6-.001 0-.003 0-.004 0l-195.329-.031c-12.426-.002-22.535-10.113-22.535-22.539v-436.836c0-12.428 10.111-22.539 22.539-22.539h29.502v-15.027h-29.502c-20.714 0-37.565 16.852-37.565 37.566v436.836c0 20.71 16.849 37.563 37.56 37.566l195.329.032h.006c10.032 0 19.466-3.907 26.561-11.001 7.096-7.095 11.005-16.53 11.005-26.565v-99.034c8.122-.503 16.154-1.813 23.965-3.928l-3.927-14.504c-8.933 2.418-18.202 3.645-27.551 3.645-57.975 0-105.142-47.166-105.142-105.142s47.166-105.141 105.141-105.141 105.142 47.166 105.142 105.142c0 32.015-14.327 61.898-39.308 81.984l9.417 11.71c28.545-22.954 44.917-57.104 44.917-93.694 0-63.737-49.881-116.034-112.655-119.926z"/><path d="m402.151 140.307c-16.896-14.177-36.178-24.262-57.311-29.974l-3.921 14.506c19.01 5.138 36.362 14.215 51.572 26.979 15.255 12.8 27.231 28.362 35.595 46.254l13.612-6.364c-9.297-19.889-22.604-37.183-39.547-51.401z"/><path d="m420.963 117.887c-7.184-6.029-14.87-11.524-22.84-16.332l-7.762 12.866c7.306 4.408 14.352 9.447 20.943 14.977 19.272 16.17 34.214 35.921 44.412 58.704l13.715-6.139c-11.133-24.874-27.44-46.432-48.468-64.076z"/><path d="m383.37 93.573c-10.836-5.22-22.25-9.355-33.925-12.291l-3.665 14.572c10.693 2.689 21.146 6.476 31.069 11.255z"/><path d="m335.527 255.472c0-16.548-13.463-30.01-30.01-30.01s-30.01 13.462-30.01 30.01 13.463 30.01 30.01 30.01 30.01-13.462 30.01-30.01zm-44.995 0c0-8.262 6.722-14.984 14.984-14.984s14.984 6.722 14.984 14.984-6.722 14.984-14.984 14.984-14.984-6.722-14.984-14.984z"/><path d="m313.029 345.533v-15.349c35.418-3.535 63.664-31.781 67.199-67.199h15.348v-15.026h-15.348c-3.535-35.418-31.781-63.664-67.199-67.199v-15.349h-15.026v15.349c-35.418 3.535-63.664 31.781-67.199 67.199h-15.349v15.026h15.349c3.535 35.418 31.781 63.664 67.199 67.199v15.349zm-67.576-90.061c0-33.119 26.945-60.063 60.063-60.063s60.063 26.944 60.063 60.063-26.945 60.063-60.063 60.063-60.063-26.944-60.063-60.063z"/></g></g></svg>